<mxfile host="app.diagrams.net" modified="2023-06-04T22:56:33.276Z" agent="Mozilla/5.0 (X11; Linux x86_64) AppleWebKit/537.36 (KHTML, like Gecko) Chrome/114.0.0.0 Safari/537.36" version="21.3.5" etag="3W7dwqH_77ineQstFksV" type="github">
  <diagram name="Page-1" id="Gcpx_599bLxEW68-ivCV">
    <mxGraphModel>
      <root>
        <mxCell id="0" />
        <mxCell id="1" parent="0" />
      </root>
    </mxGraphModel>
  </diagram>
</mxfile>
